<svg width="336" height="336" viewBox="0 0 336 336" fill="none" xmlns="http://www.w3.org/2000/svg">
<path d="M71.7489 197.248C71.4453 197.541 71.2585 197.906 71.33 198.425C71.3433 198.522 71.3776 198.623 71.4 198.721C71.3452 198.744 71.3208 198.776 71.3925 198.841C71.4072 198.855 71.4224 198.87 71.4369 198.884C71.8615 200.442 73.3044 202.151 74.6169 203.522C75.2531 204.186 75.7732 203.118 76.263 202.056C76.8851 201.876 77.1132 201.047 77.4815 200.436C77.6829 200.508 77.8902 200.813 78.1104 201.484C83.5869 197.729 89.0859 193.999 94.6779 190.38C90.0496 194.907 85.4771 199.491 81.0009 204.169C80.1627 204.461 79.3972 204.786 79.8082 205.69C80.1193 206.373 80.7313 206.824 81.4506 207.19L70.8553 217.785C67.7305 220.153 64.5361 222.443 61.5408 224.953C58.3205 227.605 55.0988 230.264 52.1394 233.188C50.6267 234.701 53.0593 237.7 55.0229 237.773C53.0162 240.34 51.0097 242.907 48.9991 245.471C48.7141 245.399 48.4331 245.327 48.1067 245.268C46.8204 245.033 46.6233 246.652 45.9668 247.427C44.461 249.204 40.7546 254.255 39.361 256.131C39.4476 256.453 39.5102 256.775 39.5816 257.096C39.1379 257.605 38.6948 258.113 38.2334 258.605C38.1583 258.685 37.7268 258.626 37.8677 258.659C38.585 258.825 39.2973 258.971 40.0105 259.119C40.2875 260.493 40.6058 261.868 41.2758 263.262C41.5562 263.845 42.1522 262.907 42.4653 262.59C43.2629 261.781 44.0047 260.916 44.7326 260.04C45.3549 260.383 45.9054 260.605 46.4059 260.738C46.6644 261.037 46.9431 261.346 47.2633 261.674C47.734 262.156 47.8667 261.698 47.8675 260.861C50.0505 260.561 50.934 257.941 52.4741 256.1C54.3085 253.906 56.1205 251.693 57.9375 249.483C58.2745 249.514 58.6037 249.531 58.8659 249.519C59.9729 249.466 60.2819 248.253 60.9675 247.597C61.8481 246.754 62.709 245.889 63.5664 245.02C62.6488 246.281 61.7307 247.54 60.8525 248.833C60.0401 249.95 59.2276 251.066 58.4141 252.181C57.6677 252.941 57.017 253.768 56.5613 254.728C56.513 254.795 56.4641 254.861 56.4159 254.928C55.7054 255.916 54.2816 256.513 53.7836 257.621C53.4296 258.015 53.2493 258.493 53.4703 259.165C53.4838 259.207 53.514 259.25 53.5305 259.292C53.1273 259.357 52.9884 259.905 52.8543 260.456C52.538 260.755 52.3992 261.29 52.2609 261.827C52.0704 262.139 51.9373 262.363 51.7843 262.616C51.7099 262.723 51.5816 262.899 51.5114 263.001C49.6823 265.657 48.0551 266.527 48.2245 268.46C47.9768 268.819 47.7318 269.18 47.484 269.538C47.2305 269.728 46.6385 269.949 46.9752 270.082C47.0089 270.096 47.046 270.112 47.0799 270.126C46.8388 270.474 46.6005 270.825 46.3593 271.174C46.503 271.297 46.5897 271.401 46.7063 271.515C46.081 272.279 45.3459 273.153 44.8558 273.764C44.3233 274.427 43.2847 274.825 42.7762 275.506C42.0844 275.896 41.7392 276.404 42.2049 277.189C42.7054 278.032 43.5387 278.891 44.4375 279.539C45.1262 280.166 45.8959 280.689 46.5979 280.965C47.2785 281.232 47.6244 280.889 47.8123 280.258C48.4333 279.653 48.5974 278.392 49.1493 277.681C49.8088 277.997 50.4714 278.228 50.9907 278.31C52.2297 278.506 52.2612 276.806 52.8971 276.054C54.0273 274.584 55.4332 272.754 56.7881 270.964C58.6269 269.334 60.3496 267.583 62.119 265.881C63.7996 264.264 65.4608 262.628 67.1308 261C65.7805 263.355 64.4788 265.748 63.1937 268.154C56.2499 276.943 49.2818 285.709 42.2916 294.455C41.0432 295.985 39.5425 297.3 38.5457 299.046C38.2667 299.535 37.9583 300.061 37.665 300.582C37.1325 300.719 36.6948 300.889 37.0579 301.353C37.1003 301.408 37.1518 301.448 37.1973 301.497C36.3267 303.41 36.3632 305.212 40.8069 305.767C41.6494 305.872 41.9473 305.012 42.5094 304.627C44.9439 302.955 47.8346 300.899 50.1801 299.244C52.4482 297.59 54.4051 296.176 56.3565 294.738C55.9012 295.494 55.5701 296.047 55.0512 296.911C53.1175 300.323 50.8618 303.471 48.8572 306.823C48.3756 307.629 47.4476 308.193 47.5091 309.316C47.5722 310.466 48.0303 312.918 49.1986 313.031C50.0279 313.112 50.848 312.93 51.6499 312.588C51.7566 312.704 51.8793 312.803 52.0421 312.861C52.6903 313.092 52.8603 312.533 52.9733 311.875C56.4352 309.569 59.3511 304.528 60.5715 302.927C65.8364 295.681 71.0518 288.391 76.2721 281.105C76.26 281.461 76.2595 281.823 76.2297 282.169C77.0019 282.482 77.7952 282.919 78.5726 283.262C78.1235 283.793 77.5738 284.439 77.2486 284.824C76.8304 284.358 76.3519 283.767 75.7379 282.883C74.3658 284.811 72.9867 286.733 71.6217 288.667C69.7795 291.277 67.4932 293.373 66.8749 296.618C66.4658 297.12 66.0957 297.655 65.7915 298.247C65.6244 298.572 66.1599 298.317 66.7245 298.098C66.6934 299.303 66.8709 300.655 67.3595 302.232C67.656 303.19 69.3751 302.668 69.9982 302.261C71.5493 301.247 72.6552 299.758 73.6623 298.166C74.0147 298.41 74.6055 298.595 75.5453 298.677C76.5701 302.943 77.7197 300.619 78.2335 299.639C78.551 299.284 78.8835 298.943 79.2081 298.594C80.076 298.486 80.4517 297.735 80.7813 296.928C82.2585 295.41 83.7654 293.922 85.2448 292.406C84.8348 293.762 85.0212 294.907 88.9358 293.789C89.5005 295.105 90.0458 295.928 90.0924 294.985C90.4852 294.321 90.8881 293.664 91.2825 293.001C91.529 292.91 91.7041 292.864 91.9697 292.761C93.8848 292.019 94.359 289.647 95.5603 288.097C95.6151 288.027 97.1066 286.118 98.3386 284.538C98.1868 284.821 98.0367 285.105 97.8858 285.389C97.7361 285.666 97.5834 285.942 97.4362 286.221C96.8159 286.952 95.5273 287.393 95.952 288.602C95.9709 288.655 95.9882 288.697 96.007 288.749C95.3045 289.707 94.27 290.858 97.208 291.588C98.945 294.874 100.048 293.214 100.732 292.045C101.592 291.914 101.529 290.494 101.999 289.807C103.504 287.611 105.172 285.378 106.74 283.241C107.133 282.718 107.526 282.196 107.917 281.672L108.382 282.136L137.137 253.381C137.595 253.392 138.153 253.351 138.787 253.267C139.354 253.885 139.8 254.022 139.8 253.099C140.065 253.049 140.319 253.006 140.611 252.941C142.601 252.493 142.968 250.047 144.122 248.578C145.45 246.887 146.748 245.169 148.059 243.462C149.336 244.749 150.979 245.839 152.489 246.3C152.519 246.324 152.534 246.34 152.563 246.364C152.683 246.46 152.755 246.454 152.801 246.39C152.838 246.399 152.876 246.415 152.912 246.423C153.4 246.535 153.643 246.237 153.835 245.851C154.798 246.392 155.752 246.776 156.562 246.714C157.186 246.665 161.913 239.897 161.94 239.861C163.294 237.845 164.322 236.343 165.474 234.47C165.819 234.244 166.048 233.865 166.224 233.417C166.517 233.169 166.867 232.926 166.56 232.567C166.549 232.555 166.543 232.548 166.533 232.536C166.663 232.157 166.804 231.793 167.001 231.503C168.473 229.33 169.931 227.145 171.404 224.973C178.691 214.222 176.002 218.144 183.978 206.913C184.321 206.439 184.673 205.973 185.017 205.5L196.954 193.564C195.003 196.777 192.886 200.276 192.257 201.407C191.641 202.514 191.126 203.7 190.56 204.845C190.493 205.341 189.786 206.013 190.359 206.332C192.224 207.368 193.552 207.932 194.566 208.15C195.103 208.845 195.446 209.106 195.138 208.304C195.147 208.286 195.157 208.266 195.167 208.247C197.458 208.436 197.881 206.404 199.899 203.949C201.348 202.185 202.768 200.394 204.194 198.609C212.282 188.483 204.865 197.663 212.008 188.854C214.227 186.244 214.657 185.643 216.835 183.381C217.358 182.838 217.952 182.365 218.443 181.792C220.281 179.648 221.753 177.153 223.286 174.744C224.765 172.463 226.004 169.99 227.108 167.42C227.504 166.499 227.832 165.527 228.282 164.646C229.218 162.815 230.247 161.057 231.244 159.273L243.443 147.075C243.644 147.127 243.847 147.175 244.049 147.224C244.351 147.736 244.682 148.236 245.099 148.696C245.496 149.133 245.383 148.186 245.433 147.592C245.718 147.67 246.005 147.739 246.287 147.839C250.558 142.957 254.429 137.703 258.509 132.644C258.633 132.851 258.789 133.036 259.022 133.173C262.164 135.031 263.983 132.406 265.201 131.213C266.752 129.695 268.353 128.117 269.757 126.459C270.654 125.399 271.482 124.275 272.344 123.183C275.461 119.109 277.98 114.537 280.528 109.99L286.557 103.961L285.21 102.614C285.597 102.76 285.565 102.092 285.663 101.779C285.705 101.646 285.799 101.454 285.879 101.274C286.552 100.084 287.228 98.8973 287.878 97.6913C290.582 93.4712 293.411 89.3577 296.106 85.1305C296.112 85.1237 299.626 79.5818 299.843 78.9522C300.028 78.4115 299.863 77.6781 299.874 77.0413C298.348 76.7408 296.634 75.998 295.14 75.7693C295.132 75.7816 295.11 75.8191 295.103 75.8314C295.091 75.8071 295.07 75.7821 295.057 75.758C295.059 75.7555 295.059 75.7577 295.061 75.754C294.854 75.7245 294.653 75.7132 294.456 75.7076C294.864 74.8974 295.316 74.0559 294.694 73.0459C293.934 71.8101 292.433 71.2723 291.08 70.5961C291.407 70.1999 291.499 70.0935 292.282 69.1467C292.622 68.7355 292.922 68.3941 293.225 68.0404C293.431 67.9434 293.602 67.8366 293.545 67.6654C293.939 67.1666 294.277 66.6228 294.52 65.9128C295.003 66.2434 295.485 66.4823 295.962 66.5178C297.557 66.6361 297.697 64.5775 298.543 63.5863C302.301 59.1814 305.867 54.5963 309.381 49.9689C309.596 49.4738 310.554 49.0943 310.028 48.483C309.41 47.764 308.664 47.0152 307.879 46.38C308.351 45.7124 308.829 45.0507 309.277 44.3626C309.58 43.8952 310.728 43.4549 310.09 42.8806C309.088 41.978 307.93 41.4855 306.76 41.0247C306.422 40.4291 306.052 39.8495 305.559 39.3302C305.148 38.8995 305.124 39.746 304.987 40.2809C304.831 40.2104 304.671 40.1521 304.518 40.075C301.675 43.0281 298.914 46.0623 296.169 49.1116C295.996 48.7848 295.828 48.4607 295.697 48.1439C295.366 48.292 295.016 48.4174 294.673 48.5512C295.317 47.7366 295.957 46.9184 296.558 46.0652C297.062 45.3491 298.896 44.4445 297.803 43.6959C296.4 42.7348 295.172 42.183 294.076 41.9148C293.95 41.6118 293.799 41.2932 293.634 40.9651C294.835 39.1886 296 36.8606 291.617 38.9434C291.726 37.9989 291.746 37.3021 291.69 36.8198C292.069 36.5959 292.238 36.312 291.842 35.8576C291.641 35.6279 291.455 35.4579 291.263 35.2703C290.798 34.0676 289.782 32.8347 287.841 31.6386C286.473 30.7954 286.177 32.99 285.436 33.7583C283.318 35.9522 281.319 38.2538 279.362 40.5964C279.291 40.299 279.232 40.0203 279.147 39.7027C278.896 38.7567 278.444 41.0327 278.006 41.6245C277.678 42.068 277.335 42.4978 277.003 42.9369C276.59 43.0484 276.196 43.1827 275.832 43.3522C275.446 42.1732 274.323 41.2832 271.907 41.1201C271.539 40.3753 270.735 39.6546 269.145 39.0943C267.559 38.5357 266.847 40.1512 265.916 40.9317C264.724 41.9307 263.846 43.2481 262.809 44.4049C262.362 44.9034 261.915 45.402 261.468 45.9004C261.461 45.8772 261.449 45.8536 261.442 45.8295C261.595 45.604 261.688 45.4625 262.165 44.8367C261.974 44.7414 261.777 44.6102 261.583 44.497C262.188 43.4774 262.801 42.4642 263.414 41.4511C264.204 40.2269 264.991 38.9999 265.781 37.7755C267.305 35.4144 271.023 29.6304 272.764 26.9981C273.156 26.4053 274.159 26.083 274.318 25.3925C274.81 25.1137 275.052 24.7741 274.664 24.2909C273.75 23.1516 272.472 21.9455 271.219 21.2999C270.882 21.0498 270.545 20.8055 270.215 20.6006C269.848 20.3727 269.653 20.5311 269.553 20.8993C268.815 21.1586 268.82 22.543 268.368 23.2253C268.203 23.4742 267.859 24.0149 267.648 24.3367C267.642 24.3291 267.638 24.3256 267.632 24.3179C264.852 28.2953 262.225 32.4016 259.677 36.5726C259.269 36.0497 258.817 35.5807 258.267 35.2348C257.268 34.6067 256.884 36.0362 256.287 36.5435C254.991 37.6443 253.784 38.8391 252.598 40.0522C252.101 40.5606 251.619 41.0852 251.128 41.5995C250.946 41.4059 250.747 41.2271 250.532 41.0612C249.617 40.3615 249.33 41.9635 248.79 42.4787C248.334 42.9131 247.898 43.3663 247.456 43.8152C247.237 43.7989 247.03 43.7762 246.787 43.7712C246.336 43.7619 245.963 43.8739 245.624 44.0377C246.048 43.3595 246.471 42.6807 246.868 41.9805C247.909 40.1435 252.263 36.3163 244.577 33.7382C243.443 33.3579 243.295 34.9139 242.714 35.5594C242.636 35.6455 242.549 35.7529 242.471 35.8409C242.244 35.9107 242.031 36.0669 241.822 36.2554C241.065 35.9779 240.935 37.001 240.559 37.5146C238.591 39.3594 236.562 41.1412 234.463 42.8491C230.047 46.4495 225.591 50.0118 221.47 53.9267C213.809 61.212 206.041 68.3908 198.584 75.8841C190.606 84.1602 182.849 92.6503 175.326 101.363C174.538 100.658 173.729 101.618 173.16 102.034C171.762 103.058 170.662 104.405 169.503 105.679C166.609 108.859 164.042 112.119 161.431 115.451C161.14 115.326 160.635 115.854 160.38 116.077C159.587 116.77 158.998 117.667 158.316 118.469C158.292 118.497 156.609 120.471 155.017 122.391C154.992 122.377 154.965 122.367 154.938 122.355C154.735 122.168 154.54 121.981 154.364 121.789C154.295 121.898 154.223 122.005 154.154 122.114C154.131 122.111 154.105 122.101 154.082 122.099C152.592 122.02 152.652 124.112 151.928 125.111C150.19 127.509 148.449 129.909 146.701 132.301C146.495 132.111 146.276 131.937 146.032 131.791C144.906 131.117 144.938 133.166 144.423 133.882C144.418 133.889 143.077 135.831 141.769 137.738C141.736 137.769 141.704 137.802 141.67 137.833C137.481 141.758 133.236 145.628 128.941 149.444C125.572 152.409 122.191 155.36 118.788 158.289C118.735 158.308 118.683 158.33 118.629 158.348C117.933 158.588 116.474 158.16 116.484 158.986C115.43 159.206 114.413 159.488 115.679 160.919C113.199 163.034 110.722 165.153 108.208 167.234C100.777 173.386 100.185 173.76 92.7666 179.732C90.1775 181.816 87.5987 183.912 85.0148 186.002C80.5516 189.759 77.596 192.079 73.579 195.985C73.0839 196.467 72.2556 196.757 71.7499 197.246L71.7489 197.248ZM295.06 75.7562C295.087 75.7592 295.113 75.7658 295.139 75.77C295.525 75.1126 295.518 75.09 295.06 75.7562ZM105.572 176.886C107.312 175.483 108.988 174.125 112.145 171.511C112.717 171.038 113.275 170.551 113.845 170.076C114.274 170.511 114.739 170.936 115.198 171.363C115.374 171.671 115.588 171.96 115.834 172.234C115.695 172.375 115.555 172.516 115.415 172.656C115.081 172.505 114.66 172.342 114.252 172.18C114.136 172.059 114.025 171.924 113.907 171.81C113.641 171.554 113.453 171.61 113.305 171.833C112.284 171.623 111.895 172.859 111.171 173.318C103.183 178.385 107.071 175.951 105.572 176.886ZM80.3056 263.52C80.5942 263.812 80.8866 264.101 81.1944 264.37C79.6976 266.452 78.199 268.533 76.7046 270.618C76.4656 270.832 76.2283 271.049 75.9884 271.263C77.0816 269.161 78.1544 267.044 79.2271 264.927C79.3336 264.792 80.1226 263.781 80.3056 263.52L80.3056 263.52ZM85.8908 272.21C86.3294 272.444 86.7704 272.653 87.2122 272.842C86.8331 273.226 86.5196 273.652 86.3366 274.161C85.0794 275.624 84.2965 276.515 82.6543 278.447C82.6401 278.438 82.6272 278.428 82.6128 278.418C82.8838 277.803 83.1374 277.172 83.4552 276.599C84.0355 275.552 84.9989 273.855 85.8908 272.21ZM214.799 175.719L217.768 172.75C216.704 174.46 215.626 176.168 214.338 177.668C213.824 178.267 213.205 178.763 212.659 179.331C212.403 179.597 212.308 179.717 212.094 179.944C212.987 178.528 213.9 177.129 214.799 175.719L214.799 175.719ZM159.369 233.135C159.373 233.198 159.391 233.258 159.407 233.319C159.13 233.733 158.811 234.21 158.514 234.648C158.8 234.144 159.083 233.639 159.369 233.135L159.369 233.135ZM263.162 132.272C263.102 132.628 262.86 133.029 262.336 133.501C262.603 133.085 262.891 132.685 263.162 132.272Z" fill="#F6196C"/>
<g filter="url(#filter0_i_66_3218)">
<path d="M169 236.552C212.92 236.552 248.523 200.948 248.523 157.028C248.523 113.109 212.92 77.5047 169 77.5047C125.08 77.5047 89.4766 113.109 89.4766 157.028C89.4766 200.948 125.08 236.552 169 236.552Z" fill="url(#paint0_linear_66_3218)"/>
</g>
<g filter="url(#filter1_iiii_66_3218)">
<path fill-rule="evenodd" clip-rule="evenodd" d="M169 259.174C225.414 259.174 271.147 213.442 271.147 157.028C271.147 100.614 225.414 54.8813 169 54.8813C112.586 54.8813 66.8535 100.614 66.8535 157.028C66.8535 213.442 112.586 259.174 169 259.174ZM169 236.552C212.92 236.552 248.523 200.948 248.523 157.028C248.523 113.109 212.92 77.5044 169 77.5044C125.08 77.5044 89.4766 113.109 89.4766 157.028C89.4766 200.948 125.08 236.552 169 236.552Z" fill="url(#paint1_linear_66_3218)"/>
</g>
<g filter="url(#filter2_f_66_3218)">
<path fill-rule="evenodd" clip-rule="evenodd" d="M124.489 119.744C123.224 120.55 122.458 121.946 122.458 123.445V125.493C122.458 127.358 123.853 128.896 125.657 129.121V184.679H124.87C122.54 184.679 120.505 186.252 119.916 188.506L117.654 197.181C117.049 199.498 118.797 201.76 121.191 201.76H212.238C214.59 201.76 216.33 199.573 215.801 197.282L213.808 188.647C213.272 186.324 211.204 184.679 208.82 184.679H208.037V129.105C209.785 128.831 211.122 127.318 211.122 125.493V123.445C211.122 121.946 210.355 120.55 209.091 119.744L169.735 94.6905C167.938 93.5465 165.641 93.5465 163.845 94.6905L124.489 119.744ZM196.268 184.679V129.149H184.5V184.679H196.268ZM172.731 184.679V129.149H160.963V184.679H172.731ZM149.194 184.679V129.149H137.425V184.679H149.194Z" fill="#DC7B3C"/>
</g>
<g filter="url(#filter3_ii_66_3218)">
<path d="M124.743 121.388C124.743 119.889 125.509 118.493 126.774 117.688L166.13 92.6338C167.927 91.49 170.223 91.49 172.02 92.6338L211.376 117.688C212.641 118.493 213.407 119.889 213.407 121.388V123.437C213.407 125.456 211.77 127.093 209.751 127.093H128.4C126.38 127.093 124.743 125.456 124.743 123.437V121.388Z" fill="#FFC546"/>
</g>
<path d="M124.743 121.388C124.743 119.889 125.509 118.493 126.774 117.688L166.13 92.6338C167.927 91.49 170.223 91.49 172.02 92.6338L211.376 117.688C212.641 118.493 213.407 119.889 213.407 121.388V123.437C213.407 125.456 211.77 127.093 209.751 127.093H128.4C126.38 127.093 124.743 125.456 124.743 123.437V121.388Z" fill="url(#paint2_linear_66_3218)"/>
<path d="M127.942 125.607C127.942 124.597 128.761 123.779 129.771 123.779H137.882C138.892 123.779 139.71 124.597 139.71 125.607V184.221H127.942V125.607Z" fill="url(#paint3_linear_66_3218)"/>
<path d="M127.942 125.607C127.942 124.597 128.761 123.779 129.771 123.779H137.882C138.892 123.779 139.71 124.597 139.71 125.607V184.221H127.942V125.607Z" fill="url(#paint4_linear_66_3218)"/>
<path d="M163.248 123.779H151.479V184.221H163.248V123.779Z" fill="url(#paint5_linear_66_3218)"/>
<path d="M163.248 123.779H151.479V184.221H163.248V123.779Z" fill="url(#paint6_linear_66_3218)"/>
<path d="M186.785 123.779H175.017V184.221H186.785V123.779Z" fill="url(#paint7_linear_66_3218)"/>
<path d="M186.785 123.779H175.017V184.221H186.785V123.779Z" fill="url(#paint8_linear_66_3218)"/>
<path d="M210.322 123.779H198.553V184.221H210.322V123.779Z" fill="url(#paint9_linear_66_3218)"/>
<path d="M210.322 123.779H198.553V184.221H210.322V123.779Z" fill="url(#paint10_linear_66_3218)"/>
<g filter="url(#filter4_ii_66_3218)">
<path d="M122.202 186.448C122.79 184.194 124.825 182.622 127.155 182.622H211.105C213.489 182.622 215.557 184.266 216.093 186.59L218.086 195.225C218.615 197.516 216.875 199.703 214.523 199.703H123.477C121.082 199.703 119.334 197.441 119.939 195.124L122.202 186.448Z" fill="#FFC248"/>
</g>
<defs>
<filter id="filter0_i_66_3218" x="89.2266" y="77.5047" width="159.297" height="159.297" filterUnits="userSpaceOnUse" color-interpolation-filters="sRGB">
<feFlood flood-opacity="0" result="BackgroundImageFix"/>
<feBlend mode="normal" in="SourceGraphic" in2="BackgroundImageFix" result="shape"/>
<feColorMatrix in="SourceAlpha" type="matrix" values="0 0 0 0 0 0 0 0 0 0 0 0 0 0 0 0 0 0 127 0" result="hardAlpha"/>
<feOffset dx="-0.25" dy="0.25"/>
<feGaussianBlur stdDeviation="0.5"/>
<feComposite in2="hardAlpha" operator="arithmetic" k2="-1" k3="1"/>
<feColorMatrix type="matrix" values="0 0 0 0 0.831373 0 0 0 0 0.45098 0 0 0 0 0.196078 0 0 0 1 0"/>
<feBlend mode="normal" in2="shape" result="effect1_innerShadow_66_3218"/>
</filter>
<filter id="filter1_iiii_66_3218" x="66.5535" y="54.5813" width="204.893" height="204.893" filterUnits="userSpaceOnUse" color-interpolation-filters="sRGB">
<feFlood flood-opacity="0" result="BackgroundImageFix"/>
<feBlend mode="normal" in="SourceGraphic" in2="BackgroundImageFix" result="shape"/>
<feColorMatrix in="SourceAlpha" type="matrix" values="0 0 0 0 0 0 0 0 0 0 0 0 0 0 0 0 0 0 127 0" result="hardAlpha"/>
<feOffset dx="0.3" dy="0.3"/>
<feGaussianBlur stdDeviation="0.3"/>
<feComposite in2="hardAlpha" operator="arithmetic" k2="-1" k3="1"/>
<feColorMatrix type="matrix" values="0 0 0 0 0.886275 0 0 0 0 0.662745 0 0 0 0 0.235294 0 0 0 1 0"/>
<feBlend mode="normal" in2="shape" result="effect1_innerShadow_66_3218"/>
<feColorMatrix in="SourceAlpha" type="matrix" values="0 0 0 0 0 0 0 0 0 0 0 0 0 0 0 0 0 0 127 0" result="hardAlpha"/>
<feOffset dx="0.3" dy="-0.3"/>
<feGaussianBlur stdDeviation="0.3"/>
<feComposite in2="hardAlpha" operator="arithmetic" k2="-1" k3="1"/>
<feColorMatrix type="matrix" values="0 0 0 0 0.956863 0 0 0 0 0.607843 0 0 0 0 0.294118 0 0 0 1 0"/>
<feBlend mode="normal" in2="effect1_innerShadow_66_3218" result="effect2_innerShadow_66_3218"/>
<feColorMatrix in="SourceAlpha" type="matrix" values="0 0 0 0 0 0 0 0 0 0 0 0 0 0 0 0 0 0 127 0" result="hardAlpha"/>
<feOffset dy="-0.3"/>
<feGaussianBlur stdDeviation="0.3"/>
<feComposite in2="hardAlpha" operator="arithmetic" k2="-1" k3="1"/>
<feColorMatrix type="matrix" values="0 0 0 0 0.956863 0 0 0 0 0.607843 0 0 0 0 0.294118 0 0 0 1 0"/>
<feBlend mode="normal" in2="effect2_innerShadow_66_3218" result="effect3_innerShadow_66_3218"/>
<feColorMatrix in="SourceAlpha" type="matrix" values="0 0 0 0 0 0 0 0 0 0 0 0 0 0 0 0 0 0 127 0" result="hardAlpha"/>
<feOffset dx="-0.3" dy="0.3"/>
<feGaussianBlur stdDeviation="0.3"/>
<feComposite in2="hardAlpha" operator="arithmetic" k2="-1" k3="1"/>
<feColorMatrix type="matrix" values="0 0 0 0 1 0 0 0 0 0.882353 0 0 0 0 0.337255 0 0 0 1 0"/>
<feBlend mode="normal" in2="effect3_innerShadow_66_3218" result="effect4_innerShadow_66_3218"/>
</filter>
<filter id="filter2_f_66_3218" x="116.933" y="93.2325" width="99.5628" height="109.128" filterUnits="userSpaceOnUse" color-interpolation-filters="sRGB">
<feFlood flood-opacity="0" result="BackgroundImageFix"/>
<feBlend mode="normal" in="SourceGraphic" in2="BackgroundImageFix" result="shape"/>
<feGaussianBlur stdDeviation="0.3" result="effect1_foregroundBlur_66_3218"/>
</filter>
<filter id="filter3_ii_66_3218" x="124.743" y="91.5259" width="88.8143" height="35.817" filterUnits="userSpaceOnUse" color-interpolation-filters="sRGB">
<feFlood flood-opacity="0" result="BackgroundImageFix"/>
<feBlend mode="normal" in="SourceGraphic" in2="BackgroundImageFix" result="shape"/>
<feColorMatrix in="SourceAlpha" type="matrix" values="0 0 0 0 0 0 0 0 0 0 0 0 0 0 0 0 0 0 127 0" result="hardAlpha"/>
<feOffset dy="-0.25"/>
<feGaussianBlur stdDeviation="0.25"/>
<feComposite in2="hardAlpha" operator="arithmetic" k2="-1" k3="1"/>
<feColorMatrix type="matrix" values="0 0 0 0 0.980392 0 0 0 0 0.647059 0 0 0 0 0.172549 0 0 0 1 0"/>
<feBlend mode="normal" in2="shape" result="effect1_innerShadow_66_3218"/>
<feColorMatrix in="SourceAlpha" type="matrix" values="0 0 0 0 0 0 0 0 0 0 0 0 0 0 0 0 0 0 127 0" result="hardAlpha"/>
<feOffset dx="0.15" dy="0.25"/>
<feGaussianBlur stdDeviation="0.25"/>
<feComposite in2="hardAlpha" operator="arithmetic" k2="-1" k3="1"/>
<feColorMatrix type="matrix" values="0 0 0 0 0.980392 0 0 0 0 0.647059 0 0 0 0 0.172549 0 0 0 1 0"/>
<feBlend mode="normal" in2="effect1_innerShadow_66_3218" result="effect2_innerShadow_66_3218"/>
</filter>
<filter id="filter4_ii_66_3218" x="119.568" y="182.372" width="98.8628" height="17.5813" filterUnits="userSpaceOnUse" color-interpolation-filters="sRGB">
<feFlood flood-opacity="0" result="BackgroundImageFix"/>
<feBlend mode="normal" in="SourceGraphic" in2="BackgroundImageFix" result="shape"/>
<feColorMatrix in="SourceAlpha" type="matrix" values="0 0 0 0 0 0 0 0 0 0 0 0 0 0 0 0 0 0 127 0" result="hardAlpha"/>
<feOffset dx="0.25" dy="-0.25"/>
<feGaussianBlur stdDeviation="0.2"/>
<feComposite in2="hardAlpha" operator="arithmetic" k2="-1" k3="1"/>
<feColorMatrix type="matrix" values="0 0 0 0 0.992157 0 0 0 0 0.658824 0 0 0 0 0.0705882 0 0 0 1 0"/>
<feBlend mode="normal" in2="shape" result="effect1_innerShadow_66_3218"/>
<feColorMatrix in="SourceAlpha" type="matrix" values="0 0 0 0 0 0 0 0 0 0 0 0 0 0 0 0 0 0 127 0" result="hardAlpha"/>
<feOffset dx="-0.25" dy="0.25"/>
<feGaussianBlur stdDeviation="0.2"/>
<feComposite in2="hardAlpha" operator="arithmetic" k2="-1" k3="1"/>
<feColorMatrix type="matrix" values="0 0 0 0 1 0 0 0 0 0.8 0 0 0 0 0.290196 0 0 0 1 0"/>
<feBlend mode="normal" in2="effect1_innerShadow_66_3218" result="effect2_innerShadow_66_3218"/>
</filter>
<linearGradient id="paint0_linear_66_3218" x1="136.551" y1="196.79" x2="222.473" y2="88.4731" gradientUnits="userSpaceOnUse">
<stop stop-color="#F19D48"/>
<stop offset="1" stop-color="#E89A44"/>
</linearGradient>
<linearGradient id="paint1_linear_66_3218" x1="169" y1="54.8813" x2="169" y2="259.174" gradientUnits="userSpaceOnUse">
<stop stop-color="#FFC444"/>
<stop offset="1" stop-color="#FFC24B"/>
</linearGradient>
<linearGradient id="paint2_linear_66_3218" x1="193.223" y1="104.927" x2="190.252" y2="109.434" gradientUnits="userSpaceOnUse">
<stop offset="0.458872" stop-color="#FFCA3F"/>
<stop offset="1" stop-color="#FFCA3F" stop-opacity="0"/>
</linearGradient>
<linearGradient id="paint3_linear_66_3218" x1="129.01" y1="147.115" x2="134.723" y2="147.115" gradientUnits="userSpaceOnUse">
<stop offset="0.166667" stop-color="#FFB33B"/>
<stop offset="1" stop-color="#FFC047"/>
</linearGradient>
<linearGradient id="paint4_linear_66_3218" x1="139.71" y1="159.017" x2="136.894" y2="159.017" gradientUnits="userSpaceOnUse">
<stop offset="0.0671736" stop-color="#FFC34C"/>
<stop offset="1" stop-color="#FFC34C" stop-opacity="0"/>
</linearGradient>
<linearGradient id="paint5_linear_66_3218" x1="152.547" y1="147.115" x2="158.26" y2="147.115" gradientUnits="userSpaceOnUse">
<stop offset="0.166667" stop-color="#FFB33B"/>
<stop offset="1" stop-color="#FFC047"/>
</linearGradient>
<linearGradient id="paint6_linear_66_3218" x1="163.248" y1="159.017" x2="160.43" y2="159.017" gradientUnits="userSpaceOnUse">
<stop offset="0.0671736" stop-color="#FFC34C"/>
<stop offset="1" stop-color="#FFC34C" stop-opacity="0"/>
</linearGradient>
<linearGradient id="paint7_linear_66_3218" x1="176.084" y1="147.115" x2="181.797" y2="147.115" gradientUnits="userSpaceOnUse">
<stop offset="0.166667" stop-color="#FFB33B"/>
<stop offset="1" stop-color="#FFC047"/>
</linearGradient>
<linearGradient id="paint8_linear_66_3218" x1="186.785" y1="159.017" x2="183.968" y2="159.017" gradientUnits="userSpaceOnUse">
<stop offset="0.0671736" stop-color="#FFC34C"/>
<stop offset="1" stop-color="#FFC34C" stop-opacity="0"/>
</linearGradient>
<linearGradient id="paint9_linear_66_3218" x1="199.621" y1="147.115" x2="205.334" y2="147.115" gradientUnits="userSpaceOnUse">
<stop offset="0.166667" stop-color="#FFB33B"/>
<stop offset="1" stop-color="#FFC047"/>
</linearGradient>
<linearGradient id="paint10_linear_66_3218" x1="210.322" y1="159.017" x2="207.505" y2="159.017" gradientUnits="userSpaceOnUse">
<stop offset="0.0671736" stop-color="#FFC34C"/>
<stop offset="1" stop-color="#FFC34C" stop-opacity="0"/>
</linearGradient>
</defs>
</svg>
